<svg width="31" height="31" viewBox="0 0 31 31" fill="none" xmlns="http://www.w3.org/2000/svg">
<path d="M23.2 9.43045C21.52 9.43045 19.9333 10.1058 18.8017 11.2755L10.6 18.8004C9.85333 19.5721 8.86167 19.9942 7.8 19.9942C5.61833 19.9942 3.83333 18.1733 3.83333 15.9182C3.83333 13.6632 5.61833 11.8423 7.8 11.8423C8.86167 11.8423 9.85333 12.2643 10.6467 13.0844L11.965 14.2903L13.75 12.6743L12.2567 11.3358C11.6724 10.7296 10.9778 10.2491 10.2128 9.92209C9.44787 9.59505 8.6278 9.42795 7.8 9.43045C4.32333 9.43045 1.5 12.3487 1.5 15.9182C1.5 19.4877 4.32333 22.406 7.8 22.406C9.48 22.406 11.0667 21.7307 12.1983 20.561L20.4 13.0361C21.1467 12.2643 22.1383 11.8423 23.2 11.8423C25.3817 11.8423 27.1667 13.6632 27.1667 15.9182C27.1667 18.1733 25.3817 19.9942 23.2 19.9942C22.15 19.9942 21.1467 19.5721 20.3533 18.7521L19 17.5342L17.25 19.1501L18.7433 20.5007C19.3291 21.1038 20.0244 21.5815 20.7891 21.9064C21.5539 22.2313 22.3732 22.397 23.2 22.394C26.6767 22.394 29.5 19.4877 29.5 15.9182C29.5 12.3005 26.6767 9.43045 23.2 9.43045Z" fill="#0ED2F6"/>
</svg>
